<?xml version="1.0" encoding="UTF-8"?>
<svg id="Layer_2" data-name="Layer 2" xmlns="http://www.w3.org/2000/svg" xmlns:xlink="http://www.w3.org/1999/xlink" viewBox="0 0 768.65 477.35">
  <defs>
    <style>
      .cls-1 {
        stroke: #2a6fb7;
      }

      .cls-1, .cls-2, .cls-3 {
        fill: none;
        stroke-miterlimit: 10;
      }

      .cls-1, .cls-3 {
        stroke-width: 3px;
      }

      .cls-2 {
        stroke: #414042;
      }

      .cls-4 {
        fill: #d7596e;
      }

      .cls-5 {
        fill: #e0d4ab;
      }

      .cls-6 {
        fill: #517bbe;
      }

      .cls-7 {
        fill: #7f9acf;
      }

      .cls-8 {
        fill: #afbee2;
      }

      .cls-9 {
        fill: #2a6fb7;
      }

      .cls-10 {
        fill: #edbfc0;
      }

      .cls-11 {
        fill: url(#linear-gradient);
      }

      .cls-3 {
        stroke: #d7596e;
      }

      .cls-12 {
        fill: #e4979c;
      }

      .cls-13 {
        fill: #5561ac;
      }
    </style>
    <linearGradient id="linear-gradient" x1="-329.41" y1="-156.07" x2="-155.3" y2="-156.07" gradientTransform="translate(498.66 381.95) rotate(21.4) skewX(.09)" gradientUnits="userSpaceOnUse">
      <stop offset="0" stop-color="#fff"/>
      <stop offset="1" stop-color="#000"/>
    </linearGradient>
  </defs>
  <g id="Layer_1-2" data-name="Layer 1">
    <path class="cls-4" d="M0,415.85c14.31-39.2,53.74-88.53,112.65-140.91,58.91-52.38,134.27-105.13,215.28-150.68,81.01-45.55,163.51-81.57,235.68-102.9C635.78,.04,693.91-5.5,729.67,5.55c35.76,11.05,47.32,38.11,33.01,77.31-14.31,39.2-53.74,88.53-112.65,140.91-58.91,52.38-134.27,105.13-215.28,150.68-81.01,45.55-163.51,81.57-235.68,102.9l16.4-20.52c65.67-19.41,140.75-52.18,214.47-93.64,73.72-41.45,142.3-89.45,195.9-137.12,53.61-47.67,89.49-92.55,102.51-128.23,13.02-35.67,2.5-60.3-30.04-70.36-32.54-10.06-85.44-5.02-151.12,14.39-65.67,19.4-140.75,52.18-214.47,93.64-73.72,41.45-142.3,89.45-195.9,137.12-53.61,47.67-89.49,92.55-102.51,128.23L0,415.85Z"/>
    <path class="cls-6" d="M672.03,168.41c-35.38,42.29-89.28,88.91-153.98,133.17-64.7,44.26-136.88,83.9-206.2,113.22-69.32,29.33-132.21,46.84-179.66,50.03-47.45,3.19-77.03-8.11-84.49-32.28-7.46-24.17,7.57-59.96,42.94-102.25,35.38-42.29,89.28-88.91,153.98-133.17,64.7-44.26,136.89-83.9,206.2-113.22,69.32-29.33,132.21-46.84,179.66-50.03l-24.91,21.55c-42.71,2.87-99.31,18.63-161.69,45.02-62.38,26.39-127.35,62.06-185.58,101.9-58.23,39.83-106.74,81.79-138.58,119.85-31.84,38.06-45.37,70.28-38.65,92.03,6.72,21.75,33.34,31.92,76.04,29.05,42.71-2.87,99.31-18.63,161.69-45.02,62.38-26.39,127.35-62.06,185.58-101.9,58.23-39.84,106.74-81.79,138.58-119.85l29.07-8.1Z"/>
    <path class="cls-13" d="M180.39,430.62c-42.4,4.71-70.31-2.83-79.73-21.52-9.42-18.7,.13-47.59,27.29-82.55,27.16-34.95,70.52-74.17,123.88-112.04,53.36-37.86,113.97-72.43,173.15-98.74,59.18-26.31,113.89-43.02,156.29-47.72,42.4-4.71,70.31,2.83,79.73,21.52,9.42,18.7-.13,47.59-27.29,82.55-27.16,34.96-70.52,74.18-123.88,112.04l-12.9-3.48c48.02-34.08,87.05-69.38,111.49-100.84,24.44-31.46,33.04-57.47,24.56-74.29-8.48-16.83-33.6-23.61-71.76-19.37-38.16,4.24-87.4,19.27-140.66,42.95-53.26,23.68-107.82,54.79-155.84,88.86-48.02,34.08-87.05,69.38-111.49,100.84-24.44,31.46-33.04,57.47-24.56,74.29,8.48,16.82,33.6,23.61,71.76,19.37l-20.04,18.13Z"/>
    <path class="cls-5" d="M319.75,189.73c48.42-29.71,99.71-54.67,146.54-71.3,46.82-16.63,86.76-24.07,114.11-21.26,27.34,2.81,40.68,15.73,38.09,36.9-2.58,21.17-20.95,49.52-52.47,80.97-31.52,31.45-74.57,64.39-122.99,94.11-48.42,29.71-99.71,54.67-146.54,71.3-46.82,16.63-86.76,24.07-114.11,21.26-27.34-2.81-40.68-15.72-38.09-36.9l23.71-11.54c-2.32,19.06,9.68,30.68,34.28,33.21,24.61,2.53,60.56-4.17,102.7-19.14,42.14-14.97,88.31-37.43,131.88-64.17,43.58-26.74,82.32-56.39,110.69-84.7,28.37-28.3,44.9-53.81,47.22-72.87,2.33-19.05-9.68-30.68-34.28-33.21-24.61-2.53-60.56,4.17-102.7,19.14-42.14,14.97-88.31,37.43-131.88,64.17l-6.16-5.97Z"/>
    <path class="cls-9" d="M233.08,374.22c-68.74,2.41-58.17-51.36,23.62-120.11,81.79-68.74,203.82-126.43,272.56-128.84,68.74-2.41,58.17,51.36-23.62,120.11-81.79,68.74-203.82,126.43-272.57,128.84Zm281.38-236.5c-61.87,2.17-171.7,54.08-245.31,115.95-73.61,61.87-83.13,110.27-21.26,108.1,61.87-2.17,171.7-54.08,245.31-115.95,73.61-61.87,83.13-110.27,21.26-108.1Z"/>
    <g>
      <path class="cls-4" d="M350.61,281.41c3.5,.62,8.83-.19,15.2-2.31,6.38-2.12,13.48-5.43,20.3-9.47,6.82-4.04,12.99-8.59,17.64-13.01,4.65-4.42,7.54-8.47,8.24-11.58,.71-3.11-.8-5.12-4.3-5.73-3.5-.61-8.83,.19-15.2,2.31-6.38,2.12-13.48,5.43-20.3,9.47-6.82,4.04-12.99,8.59-17.64,13.01l2.21-.34c4.23-4.02,9.85-8.17,16.05-11.84,6.2-3.68,12.67-6.69,18.47-8.62,5.8-1.93,10.65-2.66,13.83-2.1,3.19,.56,4.56,2.39,3.91,5.22-.64,2.83-3.27,6.52-7.5,10.54-4.23,4.02-9.85,8.17-16.05,11.84-6.2,3.68-12.67,6.69-18.47,8.62-5.8,1.93-10.65,2.66-13.83,2.1l-2.57,1.89Z"/>
      <path class="cls-6" d="M397.52,242.34c-4.63,.81-10.37,2.8-16.39,5.69-6.03,2.89-12.03,6.53-17.15,10.4-5.12,3.87-9.09,7.76-11.35,11.13-2.26,3.37-2.68,6.03-1.22,7.61,1.47,1.58,4.75,2,9.38,1.19,4.63-.81,10.37-2.8,16.39-5.69,6.03-2.89,12.03-6.53,17.15-10.4,5.12-3.87,9.09-7.76,11.35-11.13l-2.65,.92c-2.03,3.03-5.61,6.54-10.22,10.02-4.61,3.48-10.01,6.76-15.43,9.36-5.42,2.6-10.59,4.39-14.75,5.12-4.17,.73-7.12,.35-8.44-1.07-1.32-1.42-.93-3.82,1.1-6.85,2.03-3.03,5.61-6.54,10.22-10.02,4.61-3.48,10.01-6.76,15.43-9.36,5.42-2.6,10.59-4.39,14.76-5.12l1.84-1.8Z"/>
      <path class="cls-13" d="M357.21,267.46c-2.15,2.93-2.79,5.31-1.81,6.8,.98,1.49,3.52,2.02,7.26,1.5,3.74-.52,8.48-2.05,13.55-4.37,5.07-2.33,10.2-5.33,14.67-8.57,4.46-3.25,8.03-6.57,10.18-9.5,2.16-2.93,2.79-5.31,1.81-6.8-.98-1.49-3.52-2.02-7.26-1.5-3.74,.51-8.48,2.04-13.55,4.37l-.29,1.1c4.56-2.09,8.83-3.47,12.2-3.93,3.36-.46,5.65,.01,6.53,1.35,.88,1.34,.31,3.49-1.63,6.12-1.94,2.64-5.15,5.63-9.17,8.55-4.02,2.92-8.64,5.62-13.2,7.72-4.56,2.09-8.83,3.47-12.2,3.93-3.36,.46-5.65-.01-6.53-1.35-.88-1.34-.31-3.49,1.63-6.12l-2.19,.71Z"/>
      <path class="cls-5" d="M380.93,267.44c4.26-2.31,8.29-5.03,11.51-7.78,3.22-2.75,5.48-5.38,6.43-7.52,.96-2.14,.57-3.67-1.1-4.38-1.67-.71-4.55-.56-8.21,.42-3.67,.99-7.93,2.76-12.19,5.07-4.26,2.31-8.29,5.03-11.51,7.78-3.22,2.75-5.47,5.38-6.43,7.52-.96,2.14-.57,3.67,1.1,4.38l1.86-1.26c-1.51-.64-1.85-2.02-.99-3.95,.86-1.92,2.89-4.29,5.79-6.76s6.53-4.92,10.36-7c3.83-2.08,7.67-3.67,10.97-4.56,3.3-.89,5.89-1.02,7.39-.38,1.51,.64,1.85,2.02,.99,3.95-.86,1.92-2.89,4.29-5.79,6.77-2.9,2.47-6.53,4.92-10.36,7l.18,.71Z"/>
      <path class="cls-9" d="M363.61,265.98c-3.11,4.97,1.31,6.48,9.87,3.38,8.56-3.11,18.02-9.66,21.13-14.63,3.11-4.97-1.31-6.48-9.87-3.38-8.56,3.11-18.02,9.66-21.13,14.63Zm29.45-10.69c-2.8,4.48-11.31,10.37-19.02,13.17-7.7,2.8-11.68,1.44-8.89-3.04s11.31-10.37,19.01-13.17c7.71-2.8,11.68-1.44,8.89,3.04Z"/>
    </g>
    <polyline class="cls-2" points="382.19 258.38 377.75 259.58 376.26 261.98 372.56 263.18"/>
    <g>
      <g>
        <line class="cls-11" x1="280.12" y1="34.97" x2="379.05" y2="260.89"/>
        <g>
          <line class="cls-3" x1="285.11" y1="46.37" x2="379.05" y2="260.89"/>
          <g>
            <path class="cls-10" d="M284.72,45.48c.95-5,3.01-9.77,5.8-13.98l8.06,18.4c-3.09,4.3-4.69,9.58-5.44,14.79l-8.41-19.21Z"/>
            <path class="cls-12" d="M293.13,64.69c-4.32-3.03-9.34-5.23-14.56-6.03l-8.04-18.35c5.1,.85,9.91,2.46,14.19,5.18l8.41,19.21Z"/>
            <path class="cls-4" d="M299.04,50.97c-3.09,4.3-4.69,9.58-5.44,14.79-4.32-3.03-9.34-5.23-14.56-6.03l-1.08-2.47c5.1,.86,9.91,2.47,14.19,5.18,.95-5,3.01-9.77,5.8-13.98l1.1,2.51Z"/>
            <path class="cls-4" d="M296.44,45.02c-3.09,4.3-4.69,9.58-5.45,14.79-4.32-3.03-9.33-5.22-14.56-6.03l-1.08-2.47c5.1,.85,9.91,2.46,14.19,5.18,.95-5,3.01-9.77,5.8-13.98l1.1,2.51Z"/>
            <path class="cls-4" d="M293.83,39.06c-3.09,4.3-4.69,9.58-5.45,14.79-4.32-3.03-9.33-5.22-14.56-6.03l-1.08-2.47c5.1,.85,9.91,2.46,14.19,5.18,.95-5,3.01-9.77,5.8-13.98l1.1,2.51Z"/>
            <path class="cls-4" d="M291.22,33.11c-3.09,4.3-4.69,9.58-5.45,14.79-4.32-3.03-9.33-5.23-14.56-6.03l-1.08-2.47c5.1,.85,9.91,2.46,14.19,5.18,.95-5,3.01-9.77,5.8-13.98l1.1,2.51Z"/>
          </g>
        </g>
      </g>
      <g>
        <line class="cls-1" x1="162.77" y1="168.01" x2="377.3" y2="261.93"/>
        <g>
          <path class="cls-8" d="M161.89,167.63c-2.7-4.32-4.41-9.22-5.22-14.21l18.4,8.05c.64,5.26,3.06,10.22,6.03,14.56l-19.21-8.41Z"/>
          <path class="cls-7" d="M181.1,176.04c-5.23,.7-10.41,2.49-14.79,5.45l-18.36-8.04c4.33-2.83,8.95-4.91,13.94-5.82l19.21,8.41Z"/>
          <path class="cls-9" d="M176.13,161.95c.65,5.26,3.06,10.22,6.03,14.56-5.23,.7-10.41,2.49-14.79,5.45l-2.47-1.08c4.33-2.83,8.95-4.91,13.94-5.82-2.7-4.32-4.41-9.22-5.22-14.21l2.51,1.1Z"/>
          <path class="cls-9" d="M170.18,159.34c.64,5.25,3.06,10.22,6.03,14.56-5.23,.7-10.4,2.49-14.79,5.45l-2.47-1.08c4.33-2.83,8.95-4.91,13.94-5.82-2.7-4.32-4.41-9.22-5.22-14.2l2.51,1.1Z"/>
          <path class="cls-9" d="M164.23,156.73c.64,5.26,3.06,10.22,6.03,14.56-5.23,.7-10.4,2.49-14.79,5.45l-2.47-1.08c4.33-2.83,8.95-4.91,13.94-5.82-2.7-4.32-4.41-9.22-5.22-14.21l2.51,1.1Z"/>
          <path class="cls-9" d="M158.27,154.13c.64,5.25,3.05,10.22,6.03,14.56-5.23,.7-10.4,2.49-14.79,5.45l-2.47-1.08c4.33-2.83,8.95-4.91,13.94-5.82-2.7-4.32-4.41-9.22-5.22-14.21l2.51,1.1Z"/>
        </g>
      </g>
    </g>
    <polyline class="cls-2" points="374.81 264.85 377.2 261.7 379.69 261.31 381.85 258.75"/>
  </g>
</svg>